<mxfile host="Electron" modified="2024-06-10T06:35:58.982Z" agent="Mozilla/5.0 (Windows NT 10.0; Win64; x64) AppleWebKit/537.36 (KHTML, like Gecko) draw.io/24.4.8 Chrome/124.0.6367.207 Electron/30.0.6 Safari/537.36" etag="afK7G069ZqFbC1238KW4" version="24.4.8" type="device">
  <diagram name="Seite-1" id="4wFymaNB2Gxf_AYwabtO">
    <mxGraphModel dx="1323" dy="942" grid="1" gridSize="10" guides="1" tooltips="1" connect="1" arrows="1" fold="1" page="1" pageScale="1" pageWidth="827" pageHeight="1169" math="0" shadow="0">
      <root>
        <mxCell id="0" />
        <mxCell id="1" parent="0" />
        <mxCell id="FUt1jvrYiiDozV_GYSHK-2" value="" style="rounded=0;whiteSpace=wrap;html=1;movable=1;resizable=1;rotatable=1;deletable=1;editable=1;locked=0;connectable=1;" vertex="1" parent="1">
          <mxGeometry x="33" width="340" height="450" as="geometry" />
        </mxCell>
        <mxCell id="FUt1jvrYiiDozV_GYSHK-3" value="" style="rounded=0;whiteSpace=wrap;html=1;movable=1;resizable=1;rotatable=1;deletable=1;editable=1;locked=0;connectable=1;" vertex="1" parent="1">
          <mxGeometry x="163" y="80" width="80" height="110" as="geometry" />
        </mxCell>
        <mxCell id="FUt1jvrYiiDozV_GYSHK-4" value="" style="rounded=0;whiteSpace=wrap;html=1;movable=1;resizable=1;rotatable=1;deletable=1;editable=1;locked=0;connectable=1;" vertex="1" parent="1">
          <mxGeometry x="303" y="80" width="70" height="110" as="geometry" />
        </mxCell>
        <mxCell id="FUt1jvrYiiDozV_GYSHK-5" value="" style="rounded=0;whiteSpace=wrap;html=1;movable=1;resizable=1;rotatable=1;deletable=1;editable=1;locked=0;connectable=1;" vertex="1" parent="1">
          <mxGeometry x="33" y="80" width="70" height="110" as="geometry" />
        </mxCell>
        <mxCell id="FUt1jvrYiiDozV_GYSHK-6" value="" style="rounded=0;whiteSpace=wrap;html=1;movable=1;resizable=1;rotatable=1;deletable=1;editable=1;locked=0;connectable=1;" vertex="1" parent="1">
          <mxGeometry x="33" y="390" width="340" height="60" as="geometry" />
        </mxCell>
        <mxCell id="FUt1jvrYiiDozV_GYSHK-7" value="" style="rounded=0;whiteSpace=wrap;html=1;movable=1;resizable=1;rotatable=1;deletable=1;editable=1;locked=0;connectable=1;" vertex="1" parent="1">
          <mxGeometry x="253" y="410" width="100" height="20" as="geometry" />
        </mxCell>
        <mxCell id="FUt1jvrYiiDozV_GYSHK-8" value="" style="rounded=1;whiteSpace=wrap;html=1;movable=1;resizable=1;rotatable=1;deletable=1;editable=1;locked=0;connectable=1;" vertex="1" parent="1">
          <mxGeometry x="53" y="400" width="120" height="40" as="geometry" />
        </mxCell>
        <mxCell id="FUt1jvrYiiDozV_GYSHK-9" value="" style="rounded=0;whiteSpace=wrap;html=1;movable=1;resizable=1;rotatable=1;deletable=1;editable=1;locked=0;connectable=1;" vertex="1" parent="1">
          <mxGeometry x="33" width="340" height="60" as="geometry" />
        </mxCell>
        <mxCell id="FUt1jvrYiiDozV_GYSHK-10" value="&lt;h1 style=&quot;text-align: justify; margin-top: 0px; font-size: 22px;&quot;&gt;&lt;font style=&quot;font-size: 22px; font-weight: normal;&quot;&gt;Lorem ipsum dolor sit amet, consetetur sadipscing elitr, sed diam nonumy eirmod tempor invidunt ut labore et dolore magna aliquyam erat, sed diam voluptua. At vero eos et accusam et justo duo dolores et ea rebum. Stet clita kasd gubergren, no sea takimata sanctus est Lorem ipsum dolor sit amet. Lorem ipsum dolor sit amet, consetetur sadipscing elitr, sed diam nonumy eirmod tempor invidunt ut labore et dolore magna aliquyam erat, sed diam voluptua. At vero eos et accusam et justo duo dolores et ea rebum. Stet clita kasd gubergren, no sea takimata sanctus est Lorem ipsum dolor sit amet. Lorem ipsum dolor sit amet, consetetur sadipscing elitr, sed diam nonumy eirmod tempor invidunt ut labore et dolore magna aliquyam erat, sed diam voluptua. At vero eos et accusam et justo duo dolores et ea rebum. Stet clita kasd gubergren, no sea takimata sanctus est Lorem ipsum dolor sit amet.&amp;nbsp; &amp;nbsp;&lt;/font&gt;&lt;/h1&gt;&lt;h1 style=&quot;text-align: justify; margin-top: 0px; font-size: 22px;&quot;&gt;&lt;font style=&quot;font-size: 22px; font-weight: normal;&quot;&gt;&lt;br&gt;&lt;/font&gt;&lt;/h1&gt;&lt;h1 style=&quot;text-align: justify; margin-top: 0px; font-size: 22px;&quot;&gt;&lt;font style=&quot;font-size: 22px; font-weight: normal;&quot;&gt;Duis autem vel eum iriure dolor in hendrerit in vulputate velit esse molestie consequat, vel illum dolore eu feugiat nulla facilisis at vero eros et accumsan et iusto odio dignissim qui blandit praesent luptatum zzril delenit augue duis dolore te feugait nulla facilisi. Lorem ipsum dolor sit amet, consectetuer adipiscing elit, sed diam nonummy nibh euismod tincidunt ut laoreet dolore magna aliquam erat volutpat.&amp;nbsp; &amp;nbsp;&lt;/font&gt;&lt;/h1&gt;&lt;h1 style=&quot;text-align: justify; margin-top: 0px; font-size: 22px;&quot;&gt;&lt;font style=&quot;font-size: 22px; font-weight: normal;&quot;&gt;&lt;br&gt;&lt;/font&gt;&lt;/h1&gt;&lt;h1 style=&quot;text-align: justify; margin-top: 0px; font-size: 22px;&quot;&gt;&lt;font style=&quot;font-size: 22px; font-weight: normal;&quot;&gt;Ut wisi enim ad minim veniam, quis nostrud exerci tation ullamcorper suscipit lobortis nisl ut aliquip ex ea commodo consequat. Duis autem vel eum iriure dolor in hendrerit in vulputate velit esse molestie consequat, vel illum dolore eu feugiat nulla facilisis at vero eros et accumsan et iusto odio dignissim qui blandit praesent luptatum zzril delenit augue duis dolore te feugait nulla facilisi.&amp;nbsp; &amp;nbsp;&lt;/font&gt;&lt;/h1&gt;&lt;h1 style=&quot;text-align: justify; margin-top: 0px; font-size: 22px;&quot;&gt;&lt;font style=&quot;font-size: 22px; font-weight: normal;&quot;&gt;&lt;br&gt;&lt;/font&gt;&lt;/h1&gt;&lt;h1 style=&quot;text-align: justify; margin-top: 0px; font-size: 22px;&quot;&gt;&lt;font style=&quot;font-size: 22px; font-weight: normal;&quot;&gt;Nam liber tempor cum soluta nobis eleifend option congue nihil imperdiet doming id quod mazim placerat facer possim assum. Lorem ipsum dolor sit amet, consectetuer adipiscing elit, sed diam nonummy nibh euismod tincidunt ut laoreet dolore magna aliquam erat volutpat. Ut wisi enim ad minim veniam, quis nostrud exerci tation ullamcorper suscipit lobortis nisl ut aliquip ex ea commodo consequat.&amp;nbsp; &amp;nbsp;&lt;/font&gt;&lt;/h1&gt;&lt;h1 style=&quot;text-align: justify; margin-top: 0px; font-size: 22px;&quot;&gt;&lt;font style=&quot;font-size: 22px; font-weight: normal;&quot;&gt;&lt;br&gt;&lt;/font&gt;&lt;/h1&gt;&lt;h1 style=&quot;text-align: justify; margin-top: 0px; font-size: 22px;&quot;&gt;&lt;font style=&quot;font-size: 22px; font-weight: normal;&quot;&gt;Duis autem vel eum iriure dolor in hendrerit in vulputate velit esse molestie consequat, vel illum dolore eu feugiat nulla facilisis.&amp;nbsp; &amp;nbsp;&lt;/font&gt;&lt;/h1&gt;&lt;h1 style=&quot;text-align: justify; margin-top: 0px; font-size: 22px;&quot;&gt;&lt;font style=&quot;font-size: 22px; font-weight: normal;&quot;&gt;&lt;br&gt;&lt;/font&gt;&lt;/h1&gt;&lt;h1 style=&quot;text-align: justify; margin-top: 0px; font-size: 22px;&quot;&gt;&lt;font style=&quot;font-size: 22px; font-weight: normal;&quot;&gt;At vero eos et accusam et justo duo dolores et ea rebum. Stet clita kasd gubergren, no sea takimata sanctus est Lorem ipsum dolor sit amet. Lorem ipsum dolor sit amet, consetetur sadipscing elitr, sed diam nonumy eirmod tempor invidunt ut labore et dolore magna aliquyam erat, sed diam voluptua. At vero eos et accusam et justo duo dolores et ea rebum. Stet clita kasd gubergren, no sea takimata sanctus est Lorem ipsum dolor sit amet. Lorem ipsum dolor sit amet, consetetur sadipscing elitr, At accusam aliquyam diam diam dolore dolores duo eirmod eos erat, et nonumy sed tempor et et invidunt justo labore Stet clita ea et gubergren, kasd magna no rebum. sanctus sea sed takimata ut vero voluptua. est Lorem ipsum dolor sit amet. Lorem ipsum dolor sit amet, consetetur sadipscing elitr, sed diam nonumy eirmod tempor invidunt ut labore et dolore magna aliquyam erat.&amp;nbsp; &amp;nbsp;&lt;/font&gt;&lt;/h1&gt;&lt;h1 style=&quot;text-align: justify; margin-top: 0px; font-size: 22px;&quot;&gt;&lt;font style=&quot;font-size: 22px; font-weight: normal;&quot;&gt;&lt;br&gt;&lt;/font&gt;&lt;/h1&gt;&lt;h1 style=&quot;text-align: justify; margin-top: 0px; font-size: 22px;&quot;&gt;&lt;font style=&quot;font-size: 22px; font-weight: normal;&quot;&gt;Consetetur sadipscing elitr, sed diam nonumy eirmod tempor invidunt ut labore et dolore magna aliquyam erat, sed diam voluptua. At vero eos et accusam et justo duo dolores et ea rebum. Stet clita kasd gubergren, no sea takimata sanctus est Lorem ipsum dolor sit amet. Lorem ipsum dolor sit amet, consetetur sadipscing elitr, sed diam nonumy eirmod tempor invidunt ut labore et dolore magna aliquyam erat, sed diam voluptua. At vero eos et accusam et justo duo dolores et ea rebum. Stet clita kasd gubergren, no sea takimata sanctus est Lorem ipsum dolor sit amet. Lorem ipsum dolor sit amet, consetetur sadipscing elitr, sed diam nonumy eirmod tempor invidunt ut labore et dolore magna aliquyam erat, sed diam voluptua. At vero eos et accusam et justo duo dolores et ea rebum. Stet clita kasd gubergren, no sea takimata sanctus.&amp;nbsp; &amp;nbsp;&lt;/font&gt;&lt;/h1&gt;&lt;h1 style=&quot;text-align: justify; margin-top: 0px; font-size: 22px;&quot;&gt;&lt;font style=&quot;font-size: 22px; font-weight: normal;&quot;&gt;&lt;br&gt;&lt;/font&gt;&lt;/h1&gt;&lt;h1 style=&quot;text-align: justify; margin-top: 0px; font-size: 22px;&quot;&gt;&lt;font style=&quot;font-size: 22px; font-weight: normal;&quot;&gt;Lorem ipsum dolor sit amet, consetetur sadipscing elitr, sed diam nonumy eirmod tempor invidunt ut labore et dolore magna aliquyam erat, sed diam voluptua. At vero eos et accusam et justo duo dolores et ea rebum. Stet clita kasd gubergren, no sea takimata sanctus est Lorem ipsum dolor sit amet. Lorem ipsum dolor sit amet, consetetur sadipscing elitr, sed diam nonumy eirmod tempor invidunt ut labore et dolore magna aliquyam erat, sed diam voluptua. At vero eos et accusam et justo duo dolores et ea rebum. Stet clita kasd gubergren, no sea takimata sanctus est Lorem ipsum dolor sit amet. Lorem ipsum dolor sit amet, consetetur sadipscing elitr, sed diam nonumy eirmod tempor invidunt ut labore et dolore magna aliquyam erat, sed diam voluptua. At vero eos et accusam et justo duo dolores et ea rebum. Stet clita kasd gubergren, no sea takimata sanctus est Lorem ipsum dolor sit amet.&amp;nbsp; &amp;nbsp;&lt;/font&gt;&lt;/h1&gt;&lt;h1 style=&quot;text-align: justify; margin-top: 0px; font-size: 22px;&quot;&gt;&lt;font style=&quot;font-size: 22px; font-weight: normal;&quot;&gt;&lt;br&gt;&lt;/font&gt;&lt;/h1&gt;&lt;h1 style=&quot;text-align: justify; margin-top: 0px; font-size: 22px;&quot;&gt;&lt;font style=&quot;font-size: 22px; font-weight: normal;&quot;&gt;Duis autem vel eum iriure dolor in hendrerit in vulputate velit esse molestie consequat, vel illum dolore eu feugiat nulla facilisis at vero eros et accumsan et iusto odio dignissim qui blandit praesent luptatum zzril delenit augue duis dolore te feugait nulla facilisi. Lorem ipsum dolor sit amet, consectetuer adipiscing elit, sed diam nonummy nibh euismod tincidunt ut laoreet dolore magna aliquam erat volutpat.&amp;nbsp; &amp;nbsp;&lt;/font&gt;&lt;/h1&gt;&lt;h1 style=&quot;text-align: justify; margin-top: 0px; font-size: 22px;&quot;&gt;&lt;font style=&quot;font-size: 22px; font-weight: normal;&quot;&gt;&lt;br&gt;&lt;/font&gt;&lt;/h1&gt;&lt;h1 style=&quot;text-align: justify; margin-top: 0px; font-size: 22px;&quot;&gt;&lt;font style=&quot;font-size: 22px; font-weight: normal;&quot;&gt;Ut wisi enim ad minim veniam, quis nostrud exerci tation ullamcorper suscipit lobortis nisl ut aliquip ex ea commodo consequat. Duis autem vel eum iriure dolor in hendrerit in vulputate velit esse molestie consequat, vel illum dolore eu feugiat nulla facilisis at vero eros et accumsan et iusto odio dignissim qui blandit praesent luptatum zzril delenit augue duis dolore te feugait nulla facilisi.&amp;nbsp; &amp;nbsp;&lt;/font&gt;&lt;/h1&gt;&lt;h1 style=&quot;text-align: justify; margin-top: 0px; font-size: 22px;&quot;&gt;&lt;font style=&quot;font-size: 22px; font-weight: normal;&quot;&gt;&lt;br&gt;&lt;/font&gt;&lt;/h1&gt;&lt;h1 style=&quot;text-align: justify; margin-top: 0px; font-size: 22px;&quot;&gt;&lt;font style=&quot;font-size: 22px; font-weight: normal;&quot;&gt;Nam liber tempor cum soluta nobis eleifend option congue nihil imperdiet doming id quod mazim placerat facer possim assum. Lorem ipsum dolor sit amet, consectetuer adipiscing elit, sed diam nonummy nibh euismod tincidunt ut laoreet dolore magna aliquam erat volutpat. Ut wisi enim ad minim veniam, quis nostrud exerci tation ullamcorper suscipit lobortis nisl ut aliquip ex ea commodo&lt;/font&gt;&lt;/h1&gt;" style="text;html=1;whiteSpace=wrap;overflow=hidden;rounded=0;movable=1;resizable=1;rotatable=1;deletable=1;editable=1;locked=0;connectable=1;" vertex="1" parent="1">
          <mxGeometry x="43" y="200" width="310" height="170" as="geometry" />
        </mxCell>
        <mxCell id="FUt1jvrYiiDozV_GYSHK-11" value="" style="rounded=0;whiteSpace=wrap;html=1;movable=1;resizable=1;rotatable=1;deletable=1;editable=1;locked=0;connectable=1;" vertex="1" parent="1">
          <mxGeometry x="420" width="340" height="450" as="geometry" />
        </mxCell>
        <mxCell id="FUt1jvrYiiDozV_GYSHK-12" value="" style="rounded=0;whiteSpace=wrap;html=1;" vertex="1" parent="1">
          <mxGeometry x="420" width="343" height="60" as="geometry" />
        </mxCell>
        <mxCell id="FUt1jvrYiiDozV_GYSHK-17" value="" style="rounded=0;whiteSpace=wrap;html=1;movable=1;resizable=1;rotatable=1;deletable=1;editable=1;locked=0;connectable=1;" vertex="1" parent="1">
          <mxGeometry x="420" y="390" width="340" height="60" as="geometry" />
        </mxCell>
        <mxCell id="FUt1jvrYiiDozV_GYSHK-18" value="" style="rounded=0;whiteSpace=wrap;html=1;movable=1;resizable=1;rotatable=1;deletable=1;editable=1;locked=0;connectable=1;" vertex="1" parent="1">
          <mxGeometry x="640" y="410" width="100" height="20" as="geometry" />
        </mxCell>
        <mxCell id="FUt1jvrYiiDozV_GYSHK-19" value="" style="rounded=1;whiteSpace=wrap;html=1;movable=1;resizable=1;rotatable=1;deletable=1;editable=1;locked=0;connectable=1;" vertex="1" parent="1">
          <mxGeometry x="440" y="400" width="120" height="40" as="geometry" />
        </mxCell>
        <mxCell id="FUt1jvrYiiDozV_GYSHK-20" value="" style="shape=flexArrow;endArrow=classic;html=1;rounded=0;fillColor=#000000;" edge="1" parent="1">
          <mxGeometry width="50" height="50" relative="1" as="geometry">
            <mxPoint x="343" y="134.8" as="sourcePoint" />
            <mxPoint x="403" y="134.8" as="targetPoint" />
            <Array as="points">
              <mxPoint x="413" y="134.8" />
            </Array>
          </mxGeometry>
        </mxCell>
        <mxCell id="FUt1jvrYiiDozV_GYSHK-23" value="" style="shape=flexArrow;endArrow=classic;html=1;rounded=0;fillColor=#000000;" edge="1" parent="1">
          <mxGeometry width="50" height="50" relative="1" as="geometry">
            <mxPoint x="63" y="134.50000000000003" as="sourcePoint" />
            <mxPoint x="3" y="134.50000000000003" as="targetPoint" />
            <Array as="points">
              <mxPoint x="-7" y="134.50000000000003" />
            </Array>
          </mxGeometry>
        </mxCell>
        <mxCell id="FUt1jvrYiiDozV_GYSHK-24" value="Category" style="text;html=1;align=center;verticalAlign=middle;whiteSpace=wrap;rounded=0;" vertex="1" parent="1">
          <mxGeometry x="433" y="15" width="60" height="30" as="geometry" />
        </mxCell>
        <mxCell id="FUt1jvrYiiDozV_GYSHK-26" value="" style="rounded=0;whiteSpace=wrap;html=1;" vertex="1" parent="1">
          <mxGeometry x="430" y="80" width="90" height="140" as="geometry" />
        </mxCell>
        <mxCell id="FUt1jvrYiiDozV_GYSHK-27" value="" style="rounded=0;whiteSpace=wrap;html=1;" vertex="1" parent="1">
          <mxGeometry x="430" y="190" width="90" height="30" as="geometry" />
        </mxCell>
        <mxCell id="FUt1jvrYiiDozV_GYSHK-28" value="" style="rounded=0;whiteSpace=wrap;html=1;" vertex="1" parent="1">
          <mxGeometry x="543.5" y="80" width="90" height="140" as="geometry" />
        </mxCell>
        <mxCell id="FUt1jvrYiiDozV_GYSHK-29" value="" style="rounded=0;whiteSpace=wrap;html=1;" vertex="1" parent="1">
          <mxGeometry x="543.5" y="190" width="90" height="30" as="geometry" />
        </mxCell>
        <mxCell id="FUt1jvrYiiDozV_GYSHK-30" value="" style="rounded=0;whiteSpace=wrap;html=1;" vertex="1" parent="1">
          <mxGeometry x="660" y="80" width="90" height="140" as="geometry" />
        </mxCell>
        <mxCell id="FUt1jvrYiiDozV_GYSHK-31" value="" style="rounded=0;whiteSpace=wrap;html=1;" vertex="1" parent="1">
          <mxGeometry x="660" y="190" width="90" height="30" as="geometry" />
        </mxCell>
        <mxCell id="FUt1jvrYiiDozV_GYSHK-32" value="" style="rounded=0;whiteSpace=wrap;html=1;" vertex="1" parent="1">
          <mxGeometry x="430" y="240" width="90" height="140" as="geometry" />
        </mxCell>
        <mxCell id="FUt1jvrYiiDozV_GYSHK-33" value="" style="rounded=0;whiteSpace=wrap;html=1;" vertex="1" parent="1">
          <mxGeometry x="430" y="350" width="90" height="30" as="geometry" />
        </mxCell>
        <mxCell id="FUt1jvrYiiDozV_GYSHK-34" value="" style="rounded=0;whiteSpace=wrap;html=1;" vertex="1" parent="1">
          <mxGeometry x="543.5" y="240" width="90" height="140" as="geometry" />
        </mxCell>
        <mxCell id="FUt1jvrYiiDozV_GYSHK-35" value="" style="rounded=0;whiteSpace=wrap;html=1;" vertex="1" parent="1">
          <mxGeometry x="543.5" y="350" width="90" height="30" as="geometry" />
        </mxCell>
        <mxCell id="FUt1jvrYiiDozV_GYSHK-36" value="" style="rounded=0;whiteSpace=wrap;html=1;" vertex="1" parent="1">
          <mxGeometry x="660" y="240" width="90" height="140" as="geometry" />
        </mxCell>
        <mxCell id="FUt1jvrYiiDozV_GYSHK-37" value="" style="rounded=0;whiteSpace=wrap;html=1;" vertex="1" parent="1">
          <mxGeometry x="660" y="350" width="90" height="30" as="geometry" />
        </mxCell>
        <mxCell id="FUt1jvrYiiDozV_GYSHK-40" value="Start" style="text;html=1;align=center;verticalAlign=middle;whiteSpace=wrap;rounded=0;" vertex="1" parent="1">
          <mxGeometry x="43" y="15" width="60" height="30" as="geometry" />
        </mxCell>
      </root>
    </mxGraphModel>
  </diagram>
</mxfile>
